<?xml version="1.0" encoding="utf-8"?>
<!-- Generator: Adobe Illustrator 17.0.0, SVG Export Plug-In . SVG Version: 6.00 Build 0)  -->
<!DOCTYPE svg PUBLIC "-//W3C//DTD SVG 1.1//EN" "http://www.w3.org/Graphics/SVG/1.1/DTD/svg11.dtd">
<svg version="1.1" id="Layer_1" xmlns="http://www.w3.org/2000/svg" xmlns:xlink="http://www.w3.org/1999/xlink" x="0px" y="0px"
	 width="100px" height="100px" viewBox="0 0 100 100" enable-background="new 0 0 100 100" xml:space="preserve">
<g>
	<path fill="#4FBA6F" d="M60.816,27.343c-3.568,0-7.445,1.886-9.816,5.966v8.821c0,0.345-0.178,0.665-0.47,0.848l-6.301,3.938
		l11.13,4.28c0.357,0.138,0.604,0.466,0.637,0.847c0.033,0.381-0.154,0.748-0.482,0.944l-8.571,5.143l3.571,2.143
		C50.816,60.453,51,60.778,51,61.13v11.484c2.982-2.387,21-17.416,21-32.124C72,31.859,66.373,27.343,60.816,27.343z"/>
	<path fill="#4FBA6F" d="M44,58.13c0-0.352,0.184-0.677,0.485-0.857l8.242-4.945l-11.086-4.264c-0.354-0.136-0.6-0.461-0.637-0.838
		c-0.036-0.377,0.144-0.743,0.466-0.943L49,41.576v-8.263c-2.326-3.994-6.094-5.842-9.561-5.842C31.929,27.471,28,34.616,28,41.674
		c0,7.035,3.726,14.687,10.774,22.129c4.457,4.706,8.845,7.894,10.226,8.854V61.696l-4.515-2.709C44.184,58.807,44,58.481,44,58.13z
		"/>
</g>
<path fill="none" stroke="#4FBA6F" stroke-width="3" stroke-miterlimit="10" d="M85.766,54.519c0,12.086-9.797,21.883-21.883,21.883
	H36.118c-12.086,0-21.883-9.797-21.883-21.883v-11.82c0-12.086,9.797-21.883,21.883-21.883h27.765
	c12.086,0,21.883,9.797,21.883,21.883V54.519z"/>
</svg>
