<?xml version="1.0" encoding="utf-8"?>
<!-- Generator: Adobe Illustrator 17.0.0, SVG Export Plug-In . SVG Version: 6.00 Build 0)  -->
<!DOCTYPE svg PUBLIC "-//W3C//DTD SVG 1.1//EN" "http://www.w3.org/Graphics/SVG/1.1/DTD/svg11.dtd">
<svg version="1.1"
	 id="svg3013" xmlns:sodipodi="http://sodipodi.sourceforge.net/DTD/sodipodi-0.dtd" xmlns:svg="http://www.w3.org/2000/svg" xmlns:cc="http://creativecommons.org/ns#" xmlns:dc="http://purl.org/dc/elements/1.1/" xmlns:inkscape="http://www.inkscape.org/namespaces/inkscape" xmlns:rdf="http://www.w3.org/1999/02/22-rdf-syntax-ns#" inkscape:version="0.48.3.1 r9886" sodipodi:docname="bolt_font_awesome.svg"
	 xmlns="http://www.w3.org/2000/svg" xmlns:xlink="http://www.w3.org/1999/xlink" x="0px" y="0px" width="1280px" height="800px"
	 viewBox="0 0 1280 800" enable-background="new 0 0 1280 800" xml:space="preserve">
<sodipodi:namedview  id="namedview3019" borderopacity="1" pagecolor="#ffffff" inkscape:cy="896" objecttolerance="10" inkscape:cx="896" bordercolor="#666666" guidetolerance="10" showgrid="false" inkscape:zoom="0.13169643" gridtolerance="10" inkscape:window-width="640" inkscape:window-y="25" inkscape:pageshadow="2" inkscape:window-height="480" inkscape:window-x="0" inkscape:window-maximized="0" inkscape:pageopacity="0" inkscape:current-layer="svg3013">
	</sodipodi:namedview>
<g id="g3015" transform="matrix(1,0,0,-1,463.18644,1201.8983)">
	<path id="path3017" inkscape:connector-curvature="0" fill="#F1C40F" d="M371.884,977.791c5.357-5.952,6.399-12.5,3.125-19.643
		L133.937,441.63c-3.869-7.44-10.119-11.161-18.75-11.161c-1.19,0-3.274,0.298-6.25,0.893c-5.06,1.488-8.854,4.315-11.384,8.482
		c-2.53,4.167-3.199,8.631-2.009,13.393l87.946,360.714L2.241,768.863c-1.19-0.298-2.976-0.446-5.357-0.446
		c-5.357,0-9.97,1.637-13.839,4.911c-5.357,4.464-7.292,10.268-5.804,17.411l89.732,368.304c1.19,4.167,3.571,7.589,7.143,10.268
		c3.571,2.679,7.738,4.018,12.5,4.018h146.429c5.655,0,10.417-1.86,14.286-5.58c3.869-3.72,5.804-8.11,5.804-13.17
		c0-2.381-0.744-5.06-2.232-8.036l-76.339-206.696l176.786,43.75c2.381,0.595,4.167,0.893,5.357,0.893
		C362.36,984.488,367.419,982.255,371.884,977.791z"/>
</g>
</svg>
