<?xml version="1.0" encoding="utf-8"?>
<!-- Generator: Adobe Illustrator 17.0.0, SVG Export Plug-In . SVG Version: 6.00 Build 0)  -->
<!DOCTYPE svg PUBLIC "-//W3C//DTD SVG 1.1//EN" "http://www.w3.org/Graphics/SVG/1.1/DTD/svg11.dtd">
<svg version="1.1" id="Layer_1" xmlns="http://www.w3.org/2000/svg" xmlns:xlink="http://www.w3.org/1999/xlink" x="0px" y="0px"
	 width="100px" height="100px" viewBox="0 0 100 100" enable-background="new 0 0 100 100" xml:space="preserve">
<g>
	<path fill="#333333" d="M73.988,50.974h7.937c0.731,0,1.323-0.592,1.323-1.323c0-0.73-0.592-1.323-1.323-1.323h-7.937
		c-0.73,0-1.323,0.592-1.323,1.323C72.665,50.381,73.258,50.974,73.988,50.974z"/>
	<path fill="#333333" d="M74.893,42.969l7.937,2.646c0.695,0.232,1.443-0.144,1.674-0.836c0.231-0.694-0.143-1.442-0.836-1.674
		l-7.937-2.646c-0.139-0.046-0.28-0.068-0.419-0.068c-0.554,0-1.07,0.35-1.255,0.904C73.825,41.989,74.2,42.737,74.893,42.969z"/>
	<path fill="#333333" d="M83.248,53.619c-0.138,0-0.28,0.022-0.419,0.068l-7.937,2.646c-0.693,0.231-1.068,0.98-0.836,1.674
		c0.231,0.692,0.979,1.068,1.674,0.836l7.937-2.646c0.693-0.231,1.068-0.98,0.836-1.674C84.319,53.969,83.803,53.619,83.248,53.619z
		"/>
	<path fill="#333333" d="M56.791,49.651c0,3.518,2.006,6.415,5.107,7.56c-0.112,1.51,0.32,3.006,1.252,4.244
		c1.295,1.721,3.369,2.748,5.547,2.748c0.731,0,1.323-0.592,1.323-1.323s-0.592-1.323-1.323-1.323c-1.351,0-2.635-0.633-3.432-1.694
		c-0.709-0.94-0.917-2.088-0.588-3.232c0.102-0.355,0.051-0.736-0.141-1.053c-0.192-0.316-0.508-0.537-0.87-0.61
		c-2.529-0.508-4.229-2.644-4.229-5.317c0-2.864,1.601-4.898,4.177-5.308c0.41-0.065,0.765-0.319,0.961-0.685
		c0.194-0.367,0.206-0.804,0.03-1.18c-0.469-1.008-0.435-1.984,0.101-2.825c0.738-1.159,2.305-1.907,3.992-1.907
		c0.731,0,1.323-0.592,1.323-1.323s-0.592-1.323-1.323-1.323c-2.608,0-4.993,1.199-6.223,3.131
		c-0.756,1.186-1.009,2.526-0.752,3.882C58.719,43.213,56.791,46.079,56.791,49.651z"/>
</g>
<g display="none">
	<path display="inline" fill="#59595C" d="M50,35.514c7.987,0,14.486-6.498,14.486-14.486S57.987,6.543,50,6.543
		c-7.987,0-14.486,6.498-14.486,14.486S42.013,35.514,50,35.514z"/>
	<path display="inline" fill="#59595C" d="M28.271,39.136v1.811c0,17.482,7.544,25.07,12.675,28.207v24.304h18.107V69.152
		c5.131-3.138,12.675-10.728,12.675-28.206v-1.811H28.271z"/>
</g>
<g>
	<path fill="#333333" stroke="#333333" stroke-miterlimit="10" d="M54.291,33.325c-0.014-10.671-8.7-19.348-19.374-19.348
		c-10.683,0-19.374,8.691-19.374,19.374c0,0.309,0.251,0.56,0.56,0.56c0.309,0,0.56-0.251,0.56-0.56
		c0-10.066,8.189-18.255,18.255-18.255c7.563,0,14.066,4.624,16.833,11.192h-0.015c0.089,0.16,0.155,0.332,0.208,0.509
		c0.097,0.193,0.168,0.398,0.216,0.61h0.018c0.344,0.996,0.604,2.03,0.771,3.094h-0.016c0.032,0.135,0.033,0.275,0.041,0.414
		c0.06,0.23,0.099,0.466,0.1,0.705h0.016c0.054,0.57,0.082,1.146,0.082,1.73c0,0.018,0.001,0.037,0.003,0.055
		c0.003,0.028,0.26,2.808-0.739,6.78c-0.921,3.659-3.129,9.112-8.422,14.307c-2.225,2.185-3.793,4.332-4.899,6.255h-0.074
		c-0.136,0.418-0.324,0.815-0.562,1.181c-1.744,3.453-1.968,5.953-1.985,6.198c-0.589,5.711-3.737,8.73-9.103,8.73
		c-4.67,0-7.95-3.308-8.772-8.848c-0.045-0.306-0.33-0.517-0.636-0.471c-0.306,0.045-0.517,0.33-0.471,0.636
		c0.898,6.047,4.683,9.803,9.879,9.803c2.838,0,5.153-0.773,6.879-2.297c1.878-1.658,3.001-4.163,3.338-7.448
		c0.001-0.007,0.001-0.013,0.002-0.02c0.004-0.063,0.496-6.352,7.188-12.921c5.496-5.395,7.785-11.072,8.736-14.885
		C54.525,36.435,54.32,33.658,54.291,33.325z"/>
	<path fill="#333333" stroke="#333333" stroke-miterlimit="10" d="M46.438,35.077c-0.011-6.344-5.175-11.501-11.521-11.501
		c-6.353,0-11.521,5.168-11.521,11.521v7.634c0,0.264,0.185,0.493,0.444,0.548c0.032,0.007,3.24,0.712,4.91,3.41
		c0.765,1.236,1.09,2.705,0.978,4.383H29.71c0.013,0.206,0.001,0.412-0.028,0.614c-0.006,0.329-0.07,0.655-0.188,0.959
		c-0.044,0.211-0.08,0.418-0.136,0.635c-1.393,5.366-5.75,5.93-7.443,5.94c0.202-0.727,0.497-1.936,0.647-3.24
		c0.336-2.924-0.223-4.812-1.661-5.611c-0.27-0.15-0.611-0.053-0.761,0.217c-0.15,0.27-0.053,0.611,0.217,0.761
		c2.081,1.156,0.912,6.328,0.286,8.223c-0.053,0.159-0.031,0.334,0.059,0.476c0.09,0.142,0.239,0.236,0.406,0.255
		c0.028,0.003,0.288,0.033,0.709,0.033c0.722,0,1.916-0.087,3.211-0.544c1.907-0.673,4.394-2.301,5.413-6.23
		c0.76-2.929,0.511-5.439-0.741-7.461c-0.907-1.465-2.176-2.403-3.283-2.999c-0.331-0.084-0.616-0.227-0.852-0.417
		c-0.422-0.18-0.787-0.304-1.05-0.383v-1.455c-0.088-0.404-0.088-0.826,0.002-1.23h-0.002v-0.183
		c2.375-5.973,6.401-9.289,11.967-9.856c3.943-0.401,7.325,0.783,7.776,0.949c0.678,1.38,1.061,2.932,1.061,4.57
		c0,0.014,0,0.028,0.001,0.041c0.005,0.064,0.411,6.429-3.947,11.254c-0.207,0.229-0.189,0.583,0.04,0.79
		c0.229,0.207,0.583,0.189,0.79-0.04C46.805,42.048,46.471,35.577,46.438,35.077z M31.885,29.611
		c-3.098,1.344-5.569,3.743-7.371,7.146v-1.661c0-5.736,4.666-10.402,10.402-10.402c3.494,0,6.589,1.733,8.476,4.383
		C41.16,28.466,36.465,27.624,31.885,29.611z"/>
</g>
</svg>
