<?xml version="1.0" encoding="utf-8"?>
<!-- Generator: Adobe Illustrator 17.0.0, SVG Export Plug-In . SVG Version: 6.00 Build 0)  -->
<!DOCTYPE svg PUBLIC "-//W3C//DTD SVG 1.1//EN" "http://www.w3.org/Graphics/SVG/1.1/DTD/svg11.dtd">
<svg version="1.1" id="Layer_1" xmlns="http://www.w3.org/2000/svg" xmlns:xlink="http://www.w3.org/1999/xlink" x="0px" y="0px"
	 width="100px" height="100px" viewBox="0 0 100 100" enable-background="new 0 0 100 100" xml:space="preserve">
<g>
	<path fill="#333333" d="M55.972,47.44L66.213,37.2c0.943-0.943,0.943-2.471,0-3.414c-0.942-0.942-2.471-0.943-3.414,0
		L52.558,44.026c-0.942,0.942-0.943,2.471,0,3.414C53.5,48.382,55.03,48.382,55.972,47.44z"/>
	<path fill="#333333" d="M46.812,35.944l13.654-6.827c1.196-0.597,1.676-2.048,1.081-3.238c-0.597-1.193-2.045-1.676-3.238-1.081
		l-13.654,6.827c-0.239,0.12-0.449,0.274-0.628,0.453c-0.715,0.715-0.929,1.832-0.453,2.786
		C44.169,36.058,45.618,36.539,46.812,35.944z"/>
	<path fill="#333333" d="M71.332,38.906c-0.178,0.178-0.333,0.39-0.453,0.628l-6.827,13.654c-0.596,1.192-0.114,2.642,1.081,3.238
		c1.191,0.595,2.641,0.115,3.238-1.081l6.827-13.654c0.596-1.192,0.114-2.642-1.081-3.238
		C73.166,37.975,72.049,38.189,71.332,38.906z"/>
	<path fill="#333333" d="M32.077,67.921c4.539,4.539,10.865,5.689,16.343,3.165c1.804,2.093,4.291,3.466,7.091,3.86
		c3.891,0.55,7.892-0.801,10.702-3.611c0.943-0.943,0.943-2.471,0-3.414c-0.943-0.943-2.471-0.943-3.414,0
		c-1.743,1.743-4.216,2.583-6.614,2.242c-2.128-0.298-3.877-1.511-4.929-3.411c-0.326-0.59-0.884-1.015-1.541-1.177
		c-0.655-0.16-1.348-0.037-1.91,0.335c-3.918,2.608-8.868,2.045-12.317-1.404c-3.695-3.695-4.254-8.385-1.459-12.238
		c0.445-0.613,0.575-1.399,0.356-2.124c-0.223-0.724-0.772-1.303-1.484-1.561c-1.906-0.695-3.121-1.999-3.515-3.775
		c-0.543-2.448,0.514-5.434,2.69-7.611c0.943-0.943,0.943-2.471,0-3.414c-0.943-0.943-2.471-0.943-3.414,0
		c-3.365,3.365-4.895,7.989-3.989,12.069c0.555,2.506,1.957,4.561,4.038,5.979C26.258,57.127,27.469,63.313,32.077,67.921z"/>
</g>
<g display="none">
	<path display="inline" fill="#59595C" d="M50,35.514c7.987,0,14.486-6.498,14.486-14.486S57.987,6.543,50,6.543
		s-14.486,6.498-14.486,14.486S42.013,35.514,50,35.514z"/>
	<path display="inline" fill="#59595C" d="M28.271,39.136v1.811c0,17.482,7.544,25.07,12.675,28.207v24.304h18.107V69.152
		c5.131-3.138,12.675-10.728,12.675-28.206v-1.811H28.271V39.136z"/>
</g>
</svg>
