<?xml version="1.0" encoding="utf-8"?>
<!-- Generator: Adobe Illustrator 17.0.0, SVG Export Plug-In . SVG Version: 6.00 Build 0)  -->
<!DOCTYPE svg PUBLIC "-//W3C//DTD SVG 1.1//EN" "http://www.w3.org/Graphics/SVG/1.1/DTD/svg11.dtd">
<svg version="1.1" id="Layer_1" xmlns="http://www.w3.org/2000/svg" xmlns:xlink="http://www.w3.org/1999/xlink" x="0px" y="0px"
	 width="100px" height="100px" viewBox="0 0 100 100" enable-background="new 0 0 100 100" xml:space="preserve">
<path fill="#333333" d="M68.334,14.204c-6.996,0-14.702,3.936-18.334,12.576c-3.576-8.501-11.087-12.376-17.901-12.376
	c-12.73,0-19.391,11.173-19.391,22.208c0,11,6.315,22.965,18.262,34.601c8.93,8.697,17.724,14.098,18.094,14.324
	c0.285,0.174,0.61,0.26,0.935,0.26c0.367,0,0.733-0.11,1.038-0.327c1.48-1.057,36.254-26.169,36.254-50.708
	C87.291,21.265,77.754,14.204,68.334,14.204z"/>
</svg>
